<svg version="1.1" viewBox="0.0 0.0 256.0 256.0" fill="none" stroke="none" stroke-linecap="square" stroke-miterlimit="10" xmlns:xlink="http://www.w3.org/1999/xlink" xmlns="http://www.w3.org/2000/svg"><clipPath id="p.0"><path d="m0 0l256.0 0l0 256.0l-256.0 0l0 -256.0z" clip-rule="nonzero"/></clipPath><g clip-path="url(#p.0)"><path fill="#000000" fill-opacity="0.0" d="m0 0l256.0 0l0 256.0l-256.0 0z" fill-rule="evenodd"/><g filter="url(#shadowFilter-p.1)"><use xlink:href="#p.1" transform="matrix(1.0 0.0 0.0 1.0 0.7071073490813604 0.7071073490813604)"/></g><defs><filter id="shadowFilter-p.1" filterUnits="userSpaceOnUse"><feGaussianBlur in="SourceAlpha" stdDeviation="0.5" result="blur"/><feComponentTransfer in="blur" color-interpolation-filters="sRGB"><feFuncR type="linear" slope="0" intercept="0.0"/><feFuncG type="linear" slope="0" intercept="0.0"/><feFuncB type="linear" slope="0" intercept="0.0"/><feFuncA type="linear" slope="1.0" intercept="0"/></feComponentTransfer></filter></defs><g id="p.1"><defs><linearGradient id="p.2" gradientUnits="userSpaceOnUse" gradientTransform="matrix(11.313735742004015 0.0 0.0 11.313735742004015 0.0 0.0)" spreadMethod="pad" x1="3.780506679549764" y1="1.403020158058016" x2="3.780465673530445" y2="12.716755899987719"><stop offset="0.0" stop-color="#ff9900"/><stop offset="1.0" stop-color="#783f04"/></linearGradient></defs><path fill="url(#p.2)" d="m42.771652 37.207775l0 0c0 -11.7823105 9.551453 -21.33376 21.333763 -21.33376l127.78918 0c5.658066 0 11.084381 2.2476578 15.085236 6.248514c4.0008545 4.0008564 6.24852 9.427181 6.24852 15.085245l0 85.33247c0 11.782318 -9.551453 21.333755 -21.333755 21.333755l-127.78918 0l0 0c-11.7823105 0 -21.333763 -9.551437 -21.333763 -21.333755z" fill-rule="evenodd"/></g><g filter="url(#shadowFilter-p.3)"><use xlink:href="#p.3" transform="matrix(1.0 0.0 0.0 1.0 0.7071073490813604 0.7071073490813795)"/></g><defs><filter id="shadowFilter-p.3" filterUnits="userSpaceOnUse"><feGaussianBlur in="SourceAlpha" stdDeviation="0.5" result="blur"/><feComponentTransfer in="blur" color-interpolation-filters="sRGB"><feFuncR type="linear" slope="0" intercept="0.0"/><feFuncG type="linear" slope="0" intercept="0.0"/><feFuncB type="linear" slope="0" intercept="0.0"/><feFuncA type="linear" slope="1.0" intercept="0"/></feComponentTransfer></filter></defs><g id="p.3"><defs><linearGradient id="p.4" gradientUnits="userSpaceOnUse" gradientTransform="matrix(11.313735685366279 0.0 0.0 11.313735685366279 0.0 0.0)" spreadMethod="pad" x1="7.215812490757118" y1="9.910552289065444" x2="7.215771258185001" y2="21.224287974356585"><stop offset="0.0" stop-color="#ff9900"/><stop offset="1.0" stop-color="#795b04"/></linearGradient></defs><path fill="url(#p.4)" d="m81.637794 133.45975l0 0c0 -11.7823105 9.551453 -21.333763 21.333763 -21.333763l127.78917 0c5.658066 0 11.084396 2.2476578 15.085251 6.2485123c4.0008545 4.0008545 6.2485046 9.427185 6.2485046 15.085251l0 85.33247c0 11.782318 -9.551437 21.33377 -21.333755 21.33377l-127.78917 0l0 0c-11.7823105 0 -21.333763 -9.551453 -21.333763 -21.33377z" fill-rule="evenodd"/></g><g filter="url(#shadowFilter-p.5)"><use xlink:href="#p.5" transform="matrix(1.0 0.0 0.0 1.0 0.7071073490813646 0.7071073490813795)"/></g><defs><filter id="shadowFilter-p.5" filterUnits="userSpaceOnUse"><feGaussianBlur in="SourceAlpha" stdDeviation="0.5" result="blur"/><feComponentTransfer in="blur" color-interpolation-filters="sRGB"><feFuncR type="linear" slope="0" intercept="0.0"/><feFuncG type="linear" slope="0" intercept="0.0"/><feFuncB type="linear" slope="0" intercept="0.0"/><feFuncA type="linear" slope="1.0" intercept="0"/></feComponentTransfer></filter></defs><g id="p.5"><defs><linearGradient id="p.6" gradientUnits="userSpaceOnUse" gradientTransform="matrix(11.313735685365764 0.0 0.0 11.313735685365764 0.0 0.0)" spreadMethod="pad" x1="0.33406539309062255" y1="4.2537116327313536" x2="0.334024443709247" y2="15.567447318023012"><stop offset="0.0" stop-color="#ffc002"/><stop offset="1.0" stop-color="#795b04"/></linearGradient></defs><path fill="url(#p.6)" d="m3.7795277 69.45975l0 0c0 -11.782314 9.55145 -21.333763 21.33376 -21.333763l127.78918 0c5.658066 0 11.084381 2.2476578 15.085236 6.2485123c4.0008545 4.0008583 6.24852 9.427181 6.24852 15.085251l0 85.33247c0 11.782318 -9.551453 21.33377 -21.333755 21.33377l-127.78918 0l0 0c-11.78231 0 -21.33376 -9.551453 -21.33376 -21.33377z" fill-rule="evenodd"/></g></g></svg>