<svg version="1.1" viewBox="0.0 0.0 800.0 800.0" fill="none" stroke="none" stroke-linecap="square" stroke-miterlimit="10" xmlns:xlink="http://www.w3.org/1999/xlink" xmlns="http://www.w3.org/2000/svg"><clipPath id="p.0"><path d="m0 0l800.0 0l0 800.0l-800.0 0l0 -800.0z" clip-rule="nonzero"/></clipPath><g clip-path="url(#p.0)"><path fill="#000000" fill-opacity="0.0" d="m0 0l800.0 0l0 800.0l-800.0 0z" fill-rule="evenodd"/><defs><radialGradient id="p.1" gradientUnits="userSpaceOnUse" gradientTransform="matrix(-31.52187768781992 0.0 0.0 31.52187768781992 0.0 0.0)" spreadMethod="pad" cx="-4.2221503929996755" cy="0.699150800450399" fx="-4.2221503929996755" fy="0.699150800450399" r="31.52187728881836"><stop offset="0.0" stop-color="#ffffff" stop-opacity="0.0"/><stop offset="0.25" stop-color="#000000" stop-opacity="0.0"/><stop offset="0.69" stop-color="#000000"/><stop offset="1.0" stop-color="#000000"/></radialGradient></defs><path fill="url(#p.1)" d="m399.9922 777.95276l0 0c171.00446 0.003540039 320.70685 -114.812195 365.03894 -279.97028c44.332092 -165.15805 -27.752197 -339.5063 -175.77264 -425.13614c-148.02045 -85.62987 -335.09497 -61.205116 -456.1684 59.558083l72.78633 72.97331c88.0567 -87.83108 224.116 -105.5952 331.77127 -43.31659c107.65527 62.278595 160.08215 189.08206 127.83942 309.2015c-32.242737 120.11948 -141.12128 203.62497 -265.4928 203.62234z" fill-rule="evenodd"/><path fill="#000000" d="m348.4882 726.44617l0 0c0 -28.47528 23.076721 -51.55902 51.543304 -51.55902l0 0c13.6701355 0 26.780365 5.432068 36.446625 15.101318c9.666229 9.669189 15.09668 22.783447 15.09668 36.457703l0 0c0 28.47528 -23.076721 51.559082 -51.543304 51.559082l0 0c-28.466583 0 -51.543304 -23.083801 -51.543304 -51.559082z" fill-rule="evenodd"/></g></svg>