<svg version="1.1" viewBox="0.0 0.0 800.0 800.0" fill="none" stroke="none" stroke-linecap="square" stroke-miterlimit="10" xmlns:xlink="http://www.w3.org/1999/xlink" xmlns="http://www.w3.org/2000/svg"><clipPath id="p.0"><path d="m0 0l800.0 0l0 800.0l-800.0 0l0 -800.0z" clip-rule="nonzero"/></clipPath><g clip-path="url(#p.0)"><path fill="#000000" fill-opacity="0.0" d="m0 0l800.0 0l0 800.0l-800.0 0z" fill-rule="evenodd"/><defs><radialGradient id="p.1" gradientUnits="userSpaceOnUse" gradientTransform="matrix(31.52187768781992 0.0 0.0 31.52187768781992 0.0 0.0)" spreadMethod="pad" cx="21.157048394676625" cy="0.699150800450399" fx="21.157048394676625" fy="0.699150800450399" r="31.52187728881836"><stop offset="0.0" stop-color="#ffffff" stop-opacity="0.0"/><stop offset="0.25" stop-color="#000000" stop-opacity="0.0"/><stop offset="0.69" stop-color="#000000"/><stop offset="1.0" stop-color="#000000"/></radialGradient></defs><path fill="url(#p.1)" d="m400.0078 777.95276l0 0c-171.00446 0.003540039 -320.70682 -114.812195 -365.03894 -279.97028c-44.33211 -165.15805 27.752197 -339.5063 175.77263 -425.13614c148.02045 -85.62987 335.09497 -61.205116 456.1684 59.558083l-72.786316 72.97331c-88.05673 -87.83108 -224.11603 -105.5952 -331.7713 -43.31659c-107.65526 62.278595 -160.08217 189.08206 -127.83943 309.2015c32.242752 120.11948 141.12126 203.62497 265.4928 203.62234z" fill-rule="evenodd"/></g></svg>